<svg xmlns="http://www.w3.org/2000/svg" version="1.1" xmlns:xlink="http://www.w3.org/1999/xlink" xmlns:svgjs="http://svgjs.com/svgjs" width="3840" height="2160" preserveAspectRatio="none" viewBox="0 0 3840 2160"><g mask="url(&quot;#SvgjsMask1068&quot;)" fill="none"><rect width="3840" height="2160" x="0" y="0" fill="rgba(119, 47, 26, 1)"></rect><path d="M0,1500.811C275.598,1516.825,466.554,1234.784,685.417,1066.529C885.109,913.012,1113.028,785.076,1224.697,559.3C1338.039,330.143,1317.939,67.623,1305.782,-187.743C1292.451,-467.773,1346.629,-796.582,1150.609,-997.008C954.281,-1197.749,615.301,-1099.215,343.907,-1171.239C82.133,-1240.71,-151.629,-1476.705,-414.725,-1412.425C-678.423,-1347.999,-826.368,-1072.739,-978.747,-848.089C-1116.542,-644.94,-1246.082,-425.264,-1250.785,-179.836C-1255.246,52.962,-1112.111,252.306,-1003.784,458.413C-901.505,653.012,-788.559,831.387,-636.069,989.743C-443.511,1189.709,-277.139,1484.708,0,1500.811" fill="#4d1f11"></path><path d="M3840 3032.743C4011.641 3046.334 4181.536 3007.926 4335.855 2931.566 4503.4130000000005 2848.6549999999997 4695.883 2755.482 4757.225 2578.883 4818.215 2403.296 4690.356 2224.408 4644.013 2044.4 4603.347 1886.445 4571.207 1734.166 4501.757 1586.5839999999998 4408.713 1388.865 4381.653 1090.374 4169.821 1036.733 3955.25 982.3989999999999 3806.991 1269.0929999999998 3604.95 1359.492 3439.9610000000002 1433.313 3221.085 1384.726 3097.425 1516.556 2973.207 1648.982 2980.18 1853.743 2971.226 2035.089 2962.96 2202.508 2971.373 2372.599 3047.794 2521.788 3122.321 2667.279 3254.793 2768.242 3392.166 2856.844 3529.7309999999998 2945.57 3676.815 3019.822 3840 3032.743" fill="#a14023"></path></g><defs><mask id="SvgjsMask1068"><rect width="3840" height="2160" fill="#ffffff"></rect></mask></defs></svg>