<svg id="visual" viewBox="0 0 900 600" width="900" height="600" xmlns="http://www.w3.org/2000/svg" xmlns:xlink="http://www.w3.org/1999/xlink" version="1.1"><rect x="0" y="0" width="900" height="600" fill="#fff"></rect><defs><linearGradient id="grad1_0" x1="33.3%" y1="0%" x2="100%" y2="100%"><stop offset="20%" stop-color="#772f1a" stop-opacity="1"></stop><stop offset="80%" stop-color="#772f1a" stop-opacity="1"></stop></linearGradient></defs><defs><linearGradient id="grad1_1" x1="33.3%" y1="0%" x2="100%" y2="100%"><stop offset="20%" stop-color="#772f1a" stop-opacity="1"></stop><stop offset="80%" stop-color="#ffffff" stop-opacity="1"></stop></linearGradient></defs><defs><linearGradient id="grad2_0" x1="0%" y1="0%" x2="66.7%" y2="100%"><stop offset="20%" stop-color="#772f1a" stop-opacity="1"></stop><stop offset="80%" stop-color="#772f1a" stop-opacity="1"></stop></linearGradient></defs><defs><linearGradient id="grad2_1" x1="0%" y1="0%" x2="66.7%" y2="100%"><stop offset="20%" stop-color="#ffffff" stop-opacity="1"></stop><stop offset="80%" stop-color="#772f1a" stop-opacity="1"></stop></linearGradient></defs><g transform="translate(900, 0)"><path d="M0 432.7C-67.1 439.9 -134.1 447.1 -165.6 399.7C-197 352.3 -192.9 250.3 -193 193C-193.2 135.8 -197.7 123.4 -238.4 98.7C-279 74 -355.8 37 -432.7 0L0 0Z" fill="#c09384"></path><path d="M0 216.3C-33.5 220 -67.1 223.6 -82.8 199.9C-98.5 176.2 -96.4 125.1 -96.5 96.5C-96.6 67.9 -98.9 61.7 -119.2 49.4C-139.5 37 -177.9 18.5 -216.3 0L0 0Z" fill="#772f1a"></path></g><g transform="translate(0, 600)"><path d="M0 -432.7C36.1 -374.4 72.2 -316 124.4 -300.3C176.5 -284.5 244.8 -311.2 295.6 -295.6C346.4 -279.9 379.8 -221.9 399.7 -165.6C419.7 -109.2 426.2 -54.6 432.7 0L0 0Z" fill="#c09384"></path><path d="M0 -216.3C18.1 -187.2 36.1 -158 62.2 -150.1C88.3 -142.2 122.4 -155.6 147.8 -147.8C173.2 -140 189.9 -110.9 199.9 -82.8C209.8 -54.6 213.1 -27.3 216.3 0L0 0Z" fill="#772f1a"></path></g></svg>